<svg xmlns="http://www.w3.org/2000/svg" xmlns:xlink="http://www.w3.org/1999/xlink" xmlns:lucid="lucid" width="860" height="653.34"><g transform="translate(-59.99999999999996 -53.330696744926115)" lucid:page-tab-id="0_0"><path d="M0 0h1760v1360H0z" fill="#fff"/><path d="M810 98.3c-23 0-41.7 18.7-41.7 41.7 0 23 18.7 41.7 41.7 41.7 23 0 41.7-18.7 41.7-41.7 0-23-18.7-41.7-41.7-41.7zm0 12.5c6.9 0 12.5 5.6 12.5 12.5 0 7-5.6 12.5-12.5 12.5s-12.5-5.5-12.5-12.5c0-6.9 5.6-12.5 12.5-12.5zm0 59.2c-10.4 0-19.6-5.3-25-13.4.1-8.3 16.7-12.8 25-12.8s24.9 4.5 25 12.8c-5.4 8.1-14.6 13.4-25 13.4z" stroke="#000" stroke-opacity="0" fill="#ef8d22"/><path d="M760 90h100v100H760z" stroke="#000" stroke-opacity="0" fill-opacity="0"/><path d="M80 95c0-8.28 6.72-15 15-15h210c8.28 0 15 6.72 15 15v90c0 8.28-6.72 15-15 15H95c-8.28 0-15-6.72-15-15z" stroke="#666" fill="#e3f2fd"/><use xlink:href="#a" transform="matrix(1,0,0,1,84.99999999999999,85) translate(50.40668402777777 49.57465277777778)"/><use xlink:href="#b" transform="matrix(1,0,0,1,84.99999999999999,85) translate(87.39670138888889 75.61631944444444)"/><path d="M480 80h240v43.04L746.67 140 720 156.96V200H480z" stroke="#666" fill="#fff3e0"/><use xlink:href="#c" transform="matrix(1,0,0,1,485,85) translate(26.832682291666657 50.07465277777778)"/><use xlink:href="#d" transform="matrix(1,0,0,1,485,85) translate(74.1851128472222 50.07465277777778)"/><use xlink:href="#e" transform="matrix(1,0,0,1,485,85) translate(110.93641493055554 50.07465277777778)"/><use xlink:href="#f" transform="matrix(1,0,0,1,485,85) translate(173.17599826388889 50.07465277777778)"/><use xlink:href="#g" transform="matrix(1,0,0,1,485,85) translate(22.46527777777777 76.11631944444444)"/><use xlink:href="#h" transform="matrix(1,0,0,1,485,85) translate(116.62760416666666 76.11631944444444)"/><path d="M853.6 293l-18.3-31.84c-1.44-2.48-4.03-4-6.98-4.08H791.6c-2.87.08-5.46 1.6-6.9 4.08l-18.32 31.76c-1.42 2.4-1.42 5.44 0 7.92l18.33 32c1.44 2.56 4.03 4.16 6.9 4.24h36.72c2.95-.08 5.54-1.68 6.97-4.24l18.32-31.76c1.43-2.56 1.43-5.6 0-8.08z" stroke="#000" stroke-opacity="0" fill="#4285f4"/><path d="M829.84 282.92l-39.77.08 14.57 14.56-14.57 9.36 12.87 12.8-1.34 2.56 14.83 14.8h11.9c2.94-.16 5.53-1.76 6.96-4.24l16.26-28.24-21.72-21.68z" stroke="#000" stroke-opacity="0" fill-opacity=".07"/><path d="M810.36 293.88l19.48-10.96-17.7-10.16c-1.34-.72-2.94-.72-4.28 0L790.06 283l20.3 10.88z" stroke="#000" stroke-opacity="0" fill="#fff"/><path d="M810.36 298.44l-21.27-11.36v17.36c-.1 1.28.6 2.4 1.68 3.04l9.66 5.6c.53.32.8.88.8 1.52v6.96c0 .4.27.72.54.88.36.24.7.24 1.07 0l26.28-14.96c1.16-.56 1.78-1.76 1.78-3.04v-17.52l-20.54 11.52z" stroke="#000" stroke-opacity="0" fill="#fff"/><path d="M140 220v424h20l-40 36-40-36h20V220z" stroke="#000" stroke-width="2" fill="#f1f8e9"/><use xlink:href="#i" transform="matrix(6.123233995736765e-17,-1,1,6.123233995736765e-17,85,675) translate(107.43272569444444 42.595486111111114)"/><use xlink:href="#j" transform="matrix(6.123233995736765e-17,-1,1,6.123233995736765e-17,85,675) translate(204.42708333333331 42.595486111111114)"/><use xlink:href="#k" transform="matrix(6.123233995736765e-17,-1,1,6.123233995736765e-17,85,675) translate(283.79991319444446 42.595486111111114)"/><path d="M480 240h240v40.12l26.67 16.96L720 314.04v40.13H480z" stroke="#666" fill="#fff3e0"/><use xlink:href="#l" transform="matrix(1,0,0,1,485,244.99999999999997) translate(10.334201388888886 34.05381944444444)"/><use xlink:href="#m" transform="matrix(1,0,0,1,485,244.99999999999997) translate(74.24479166666667 34.05381944444444)"/><use xlink:href="#n" transform="matrix(1,0,0,1,485,244.99999999999997) translate(194.45963541666666 34.05381944444444)"/><use xlink:href="#o" transform="matrix(1,0,0,1,485,244.99999999999997) translate(29.588758680555557 60.09548611111111)"/><use xlink:href="#p" transform="matrix(1,0,0,1,485,244.99999999999997) translate(70.36566840277777 60.09548611111111)"/><use xlink:href="#q" transform="matrix(1,0,0,1,485,244.99999999999997) translate(124.20681423611111 60.09548611111111)"/><use xlink:href="#r" transform="matrix(1,0,0,1,485,244.99999999999997) translate(157.61610243055554 60.09548611111111)"/><use xlink:href="#g" transform="matrix(1,0,0,1,485,244.99999999999997) translate(22.774522569444457 86.13715277777777)"/><use xlink:href="#s" transform="matrix(1,0,0,1,485,244.99999999999997) translate(116.93684895833334 86.13715277777777)"/><path d="M480 400h240v40.13l26.67 16.95L720 474.04v40.13H480z" stroke="#666" fill="#fff3e0"/><use xlink:href="#t" transform="matrix(1,0,0,1,485,405.0000000000388) translate(49.33159722222223 60.095486111111114)"/><use xlink:href="#u" transform="matrix(1,0,0,1,485,405.0000000000388) translate(91.85546875 60.095486111111114)"/><path d="M480 560h240v43.04L746.67 620 720 636.96V680H480z" stroke="#666" fill="#fff3e0"/><use xlink:href="#v" transform="matrix(1,0,0,1,485,565.0000000000776) translate(36.12630208333334 49.57465277777778)"/><use xlink:href="#w" transform="matrix(1,0,0,1,485,565.0000000000776) translate(93.81944444444446 49.57465277777778)"/><use xlink:href="#x" transform="matrix(1,0,0,1,485,565.0000000000776) translate(177.02256944444443 49.57465277777778)"/><use xlink:href="#y" transform="matrix(1,0,0,1,485,565.0000000000776) translate(78.24869791666666 75.61631944444444)"/><path d="M160 416.46c0-8.3 6.72-15 15-15h210c8.28 0 15 6.7 15 15v84.17c0 8.28-6.72 15-15 15H175c-8.28 0-15-6.72-15-15z" stroke="#666" fill="#e3f2fd"/><use xlink:href="#z" transform="matrix(1,0,0,1,164.99999999999997,406.4583333333333) translate(30.21896701388887 47.07465277777778)"/><use xlink:href="#b" transform="matrix(1,0,0,1,164.99999999999997,406.4583333333333) translate(87.39670138888889 73.11631944444444)"/><path d="M810 416.84c-23 0-41.7 18.7-41.7 41.7 0 23 18.7 41.7 41.7 41.7 23 0 41.7-18.7 41.7-41.7 0-23-18.7-41.7-41.7-41.7zm0 12.5c6.9 0 12.5 5.6 12.5 12.5 0 7-5.6 12.5-12.5 12.5s-12.5-5.5-12.5-12.5c0-6.9 5.6-12.5 12.5-12.5zm0 59.2c-10.4 0-19.6-5.3-25-13.4.1-8.3 16.7-12.8 25-12.8s24.9 4.5 25 12.8c-5.4 8.1-14.6 13.4-25 13.4z" stroke="#000" stroke-opacity="0" fill="#ef8d22"/><path d="M760 408.54h100v100H760z" stroke="#000" stroke-opacity="0" fill-opacity="0"/><path d="M853.6 615.92l-18.3-31.84c-1.44-2.48-4.03-4-6.98-4.08H791.6c-2.87.08-5.46 1.6-6.9 4.08l-18.32 31.76c-1.42 2.4-1.42 5.44 0 7.92l18.33 32c1.44 2.56 4.03 4.16 6.9 4.24h36.72c2.95-.08 5.54-1.68 6.97-4.24L853.6 624c1.43-2.56 1.43-5.6 0-8.08z" stroke="#000" stroke-opacity="0" fill="#4285f4"/><path d="M829.84 605.84l-39.77.08 14.57 14.56-14.57 9.36 12.87 12.8-1.34 2.56 14.83 14.8h11.9c2.94-.16 5.53-1.76 6.96-4.24l16.26-28.24-21.72-21.68z" stroke="#000" stroke-opacity="0" fill-opacity=".07"/><path d="M810.36 616.8l19.48-10.96-17.7-10.16c-1.34-.72-2.94-.72-4.28 0l-17.8 10.24 20.3 10.88z" stroke="#000" stroke-opacity="0" fill="#fff"/><path d="M810.36 621.36L789.1 610v17.36c-.1 1.28.6 2.4 1.68 3.04l9.66 5.6c.53.32.8.88.8 1.52v6.96c0 .4.27.72.54.88.36.24.7.24 1.07 0l26.28-14.96c1.16-.56 1.78-1.76 1.78-3.04v-17.52l-20.54 11.52z" stroke="#000" stroke-opacity="0" fill="#fff"/><path d="M200 201.5V298h261" stroke="#666" stroke-width="2" fill="none"/><path d="M201 201.53h-2v-1.03h2z" fill="#666"/><path d="M476.26 298L462 302.64v-9.28z" stroke="#666" stroke-width="2" fill="#666"/><path d="M600 355.67V381" stroke="#666" stroke-width="2" fill="none"/><path d="M601 355.7h-2v-1.03h2z" fill="#666"/><path d="M600 396.26L595.36 382h9.28z" stroke="#666" stroke-width="2" fill="#666"/><path d="M478.5 458.12H419" stroke="#666" stroke-width="2" fill="none"/><path d="M479.5 459.13h-1.03v-2h1.03z" fill="#666"/><path d="M403.74 458.12L418 453.5v9.26z" stroke="#666" stroke-width="2" fill="#666"/><path d="M280 517.13V618h181" stroke="#666" stroke-width="2" fill="none"/><path d="M281 517.15h-2v-1.02h2z" fill="#666"/><path d="M476.26 618L462 622.64v-9.28z" stroke="#666" stroke-width="2" fill="#666"/><path d="M478.5 140H339" stroke="#666" stroke-width="2" fill="none"/><path d="M479.5 141h-1.03v-2h1.03z" fill="#666"/><path d="M323.74 140l14.26-4.64v9.28z" stroke="#666" stroke-width="2" fill="#666"/><path d="M860 115h40v50h-40z" stroke="#000" stroke-opacity="0" stroke-width="2" fill="#fff" fill-opacity="0"/><g><use xlink:href="#A" transform="matrix(1,0,0,1,865,120) translate(8.760850694444445 27.59548611111111)"/></g><path d="M320 80h40v50h-40z" stroke="#000" stroke-opacity="0" stroke-width="2" fill="#fff" fill-opacity="0"/><g><use xlink:href="#B" transform="matrix(1,0,0,1,325,85) translate(8.760850694444445 27.59548611111111)"/></g><path d="M860 257.08h40v50h-40z" stroke="#000" stroke-opacity="0" stroke-width="2" fill="#fff" fill-opacity="0"/><g><use xlink:href="#C" transform="matrix(1,0,0,1,865,262.0833333333333) translate(8.760850694444445 27.59548611111111)"/></g><path d="M860 425h40v50h-40z" stroke="#000" stroke-opacity="0" stroke-width="2" fill="#fff" fill-opacity="0"/><g><use xlink:href="#D" transform="matrix(1,0,0,1,865,430) translate(8.760850694444445 27.59548611111111)"/></g><path d="M400 400h40v50h-40z" stroke="#000" stroke-opacity="0" stroke-width="2" fill="#fff" fill-opacity="0"/><g><use xlink:href="#E" transform="matrix(1,0,0,1,405,405.0000000000388) translate(8.760850694444445 27.59548611111111)"/></g><path d="M860 580h40v50h-40z" stroke="#000" stroke-opacity="0" stroke-width="2" fill="#fff" fill-opacity="0"/><g><use xlink:href="#F" transform="matrix(1,0,0,1,865,585) translate(8.760850694444445 27.59548611111111)"/></g><defs><path fill="#333" d="M688-137c238 0 323-102 359-325h193c-32 297-228 482-552 482-361 0-569-299-569-680 0-197 8-360 73-497 88-186 257-317 513-319 316-2 509 195 535 488h-193c-31-212-118-330-342-330-272 0-397 224-393 523v141c-3 282 115 517 376 517" id="G"/><path fill="#333" d="M589-945c-131 0-219 81-264 174V0H140v-1536h185v585c82-101 189-151 320-151 229 0 346 129 346 387V0H806v-716c-2-153-65-229-217-229" id="H"/><path fill="#333" d="M599-131c141 0 220-65 285-146l113 88C906-50 770 20 589 20 281 21 93-214 93-545c0-223 93-397 233-485 74-48 154-72 240-72 300 2 449 218 445 537v77H278c0 197 129 357 321 357zm227-509c-3-180-88-310-260-310-170 0-264 140-282 310h542" id="I"/><path fill="#333" d="M277-555c0 244 77 420 297 424 127 2 249-93 255-210h175C980-127 805 20 574 20 258 20 81-222 92-562c11-319 164-533 481-540 237-5 426 165 431 392H829c-7-133-115-242-256-240-209 4-296 166-296 395" id="J"/><path fill="#333" d="M442-501L326-380V0H141v-1536h185v929c135-169 291-317 436-475h225L566-630 1036 0H819" id="K"/><path fill="#333" d="M341 0H156v-1082h185V0zm-91-1264c-68 0-108-42-109-105 0-62 41-107 109-107s110 44 110 107-42 105-110 105" id="L"/><path fill="#333" d="M589-945c-131 0-219 81-264 174V0H140v-1082h175l6 136c83-104 191-156 324-156 229 0 346 129 346 387V0H806v-716c-2-153-65-229-217-229" id="M"/><path fill="#333" d="M521 20C240 20 96-239 96-550c0-303 147-552 427-552 132 0 235 47 309 140l9-120h169V-26c4 277-183 454-459 452-165-1-334-81-400-187l96-111c79 98 176 147 291 147 180 1 288-109 286-290v-93C750-23 649 20 521 20zm48-965c-209 0-287 178-287 416 0 217 86 392 285 392 117 0 202-53 257-159v-494c-57-103-142-155-255-155" id="N"/><path fill="#333" d="M375 0H183v-1456h192V0" id="O"/><path fill="#333" d="M704-1390c-164-38-297 28-288 194v114h231v143H416V0H231v-939H60v-143h171v-111c-12-274 208-416 483-347" id="P"/><path fill="#333" d="M584 20C278 26 81-227 91-551c10-320 175-545 491-551 308-5 503 247 494 573-9 322-175 543-492 549zm-2-970c-208 0-305 185-305 421 0 216 106 398 307 398 211 0 307-186 307-420 0-214-109-399-309-399" id="Q"/><g id="a"><use transform="matrix(0.010850694444444444,0,0,0.010850694444444444,0,0)" xlink:href="#G"/><use transform="matrix(0.010850694444444444,0,0,0.010850694444444444,14.463975694444445,0)" xlink:href="#H"/><use transform="matrix(0.010850694444444444,0,0,0.010850694444444444,26.70355902777778,0)" xlink:href="#I"/><use transform="matrix(0.010850694444444444,0,0,0.010850694444444444,38.4765625,0)" xlink:href="#J"/><use transform="matrix(0.010850694444444444,0,0,0.010850694444444444,50.10850694444444,0)" xlink:href="#K"/><use transform="matrix(0.010850694444444444,0,0,0.010850694444444444,61.37152777777778,0)" xlink:href="#L"/><use transform="matrix(0.010850694444444444,0,0,0.010850694444444444,66.76432291666666,0)" xlink:href="#M"/><use transform="matrix(0.010850694444444444,0,0,0.010850694444444444,79.02560763888889,0)" xlink:href="#N"/><use transform="matrix(0.010850694444444444,0,0,0.010850694444444444,91.49305555555556,0)" xlink:href="#O"/><use transform="matrix(0.010850694444444444,0,0,0.010850694444444444,97.53689236111111,0)" xlink:href="#M"/><use transform="matrix(0.010850694444444444,0,0,0.010850694444444444,109.79817708333334,0)" xlink:href="#P"/><use transform="matrix(0.010850694444444444,0,0,0.010850694444444444,117.51302083333334,0)" xlink:href="#Q"/></g><path fill="#333" d="M456 20C285 20 205-92 206-268v-671H9v-143h197v-262h185v262h202v143H391v671c-9 125 92 149 207 118V0c-49 13-96 20-142 20" id="R"/><g id="b"><use transform="matrix(0.010850694444444444,0,0,0.010850694444444444,0,0)" xlink:href="#L"/><use transform="matrix(0.010850694444444444,0,0,0.010850694444444444,5.392795138888888,0)" xlink:href="#M"/><use transform="matrix(0.010850694444444444,0,0,0.010850694444444444,17.65407986111111,0)" xlink:href="#R"/><use transform="matrix(0.010850694444444444,0,0,0.010850694444444444,24.913194444444443,0)" xlink:href="#I"/><use transform="matrix(0.010850694444444444,0,0,0.010850694444444444,36.686197916666664,0)" xlink:href="#M"/><use transform="matrix(0.010850694444444444,0,0,0.010850694444444444,48.947482638888886,0)" xlink:href="#R"/></g><path fill="#333" d="M277-1536c5 179-19 330-30 494H136l1-494h140zm270 0c5 179-19 330-30 494H406l1-494h140" id="S"/><path fill="#333" d="M1175-1298H707V0H516v-1298H49v-158h1126v158" id="T"/><path fill="#333" d="M341 0H156v-1536h185V0" id="U"/><g id="c"><use transform="matrix(0.010850694444444444,0,0,0.010850694444444444,0,0)" xlink:href="#S"/><use transform="matrix(0.010850694444444444,0,0,0.010850694444444444,7.107204861111111,0)" xlink:href="#T"/><use transform="matrix(0.010850694444444444,0,0,0.010850694444444444,19.29253472222222,0)" xlink:href="#I"/><use transform="matrix(0.010850694444444444,0,0,0.010850694444444444,31.065538194444443,0)" xlink:href="#U"/><use transform="matrix(0.010850694444444444,0,0,0.010850694444444444,36.45833333333333,0)" xlink:href="#U"/></g><path fill="#333" d="M1240-945c-141 0-250 95-250 227V0H804v-709c0-157-77-236-231-236-121 0-204 52-249 155V0H139v-1082h175l5 120c79-93 186-140 321-140 151 0 254 58 309 174 69-98 181-174 345-174 237 0 362 126 362 377V0h-185v-714c-2-159-67-231-231-231" id="V"/><g id="d"><use transform="matrix(0.010850694444444444,0,0,0.010850694444444444,0,0)" xlink:href="#V"/><use transform="matrix(0.010850694444444444,0,0,0.010850694444444444,19.47699652777778,0)" xlink:href="#I"/></g><path fill="#333" d="M561-1102c238-4 403 126 403 351v498c0 99 13 178 38 237V0H808c-11-21-19-59-26-114C696-25 593 20 474 20c-199 0-368-130-365-320 4-251 214-359 490-356h180v-85c-1-135-86-212-229-212-115 0-232 67-233 171H131c20-205 206-316 430-320zM294-326c0 117 90 185 207 185 122 0 239-75 278-162v-222H634c-227 0-340 66-340 199" id="W"/><path fill="#333" d="M634-1102c292 0 422 254 422 573 0 298-143 547-420 549-137 0-242-48-317-145L310 0H140v-1536h185v573c75-93 178-139 309-139zm-44 965c207 0 281-175 281-413 0-224-79-395-283-395-122 0-210 57-263 170v468c57 113 145 170 265 170" id="X"/><path fill="#333" d="M491 20c-241-1-355-148-355-398v-704h185v699c0 164 67 246 200 246 141 0 235-53 282-158v-787h185V0H812l-4-107C736-22 630 20 491 20" id="Y"/><g id="e"><use transform="matrix(0.010850694444444444,0,0,0.010850694444444444,0,0)" xlink:href="#W"/><use transform="matrix(0.010850694444444444,0,0,0.010850694444444444,12.08767361111111,0)" xlink:href="#X"/><use transform="matrix(0.010850694444444444,0,0,0.010850694444444444,24.55512152777778,0)" xlink:href="#Q"/><use transform="matrix(0.010850694444444444,0,0,0.010850694444444444,37.228732638888886,0)" xlink:href="#Y"/><use transform="matrix(0.010850694444444444,0,0,0.010850694444444444,49.479166666666664,0)" xlink:href="#R"/></g><path fill="#333" d="M494-271l252-811h198L509 167C425 381 299 474 84 421V271c167 16 242-37 283-173l41-110L22-1082h202" id="Z"/><g id="f"><use transform="matrix(0.010850694444444444,0,0,0.010850694444444444,0,0)" xlink:href="#V"/><use transform="matrix(0.010850694444444444,0,0,0.010850694444444444,19.47699652777778,0)" xlink:href="#Z"/></g><g id="g"><use transform="matrix(0.010850694444444444,0,0,0.010850694444444444,0,0)" xlink:href="#J"/><use transform="matrix(0.010850694444444444,0,0,0.010850694444444444,11.631944444444445,0)" xlink:href="#H"/><use transform="matrix(0.010850694444444444,0,0,0.010850694444444444,23.87152777777778,0)" xlink:href="#I"/><use transform="matrix(0.010850694444444444,0,0,0.010850694444444444,35.64453125,0)" xlink:href="#J"/><use transform="matrix(0.010850694444444444,0,0,0.010850694444444444,47.27647569444444,0)" xlink:href="#K"/><use transform="matrix(0.010850694444444444,0,0,0.010850694444444444,58.53949652777778,0)" xlink:href="#L"/><use transform="matrix(0.010850694444444444,0,0,0.010850694444444444,63.93229166666666,0)" xlink:href="#M"/><use transform="matrix(0.010850694444444444,0,0,0.010850694444444444,76.19357638888889,0)" xlink:href="#N"/></g><path fill="#333" d="M258 11c-71 0-114-43-114-108 0-67 42-112 114-112s116 45 116 112c-1 65-45 108-116 108" id="aa"/><g id="h"><use transform="matrix(0.010850694444444444,0,0,0.010850694444444444,0,0)" xlink:href="#W"/><use transform="matrix(0.010850694444444444,0,0,0.010850694444444444,12.08767361111111,0)" xlink:href="#J"/><use transform="matrix(0.010850694444444444,0,0,0.010850694444444444,23.719618055555554,0)" xlink:href="#J"/><use transform="matrix(0.010850694444444444,0,0,0.010850694444444444,35.3515625,0)" xlink:href="#Q"/><use transform="matrix(0.010850694444444444,0,0,0.010850694444444444,48.02517361111111,0)" xlink:href="#Y"/><use transform="matrix(0.010850694444444444,0,0,0.010850694444444444,60.2756076388889,0)" xlink:href="#M"/><use transform="matrix(0.010850694444444444,0,0,0.010850694444444444,72.53689236111111,0)" xlink:href="#R"/><use transform="matrix(0.010850694444444444,0,0,0.010850694444444444,79.79600694444444,0)" xlink:href="#aa"/><use transform="matrix(0.010850694444444444,0,0,0.010850694444444444,83.79991319444444,0)" xlink:href="#S"/></g><path d="M688-137c238 0 323-102 359-325h193c-32 297-228 482-552 482-361 0-569-299-569-680 0-197 8-360 73-497 88-186 257-317 513-319 316-2 509 195 535 488h-193c-31-212-118-330-342-330-272 0-397 224-393 523v141c-3 282 115 517 376 517" id="ab"/><path d="M589-945c-131 0-219 81-264 174V0H140v-1536h185v585c82-101 189-151 320-151 229 0 346 129 346 387V0H806v-716c-2-153-65-229-217-229" id="ac"/><path d="M599-131c141 0 220-65 285-146l113 88C906-50 770 20 589 20 281 21 93-214 93-545c0-223 93-397 233-485 74-48 154-72 240-72 300 2 449 218 445 537v77H278c0 197 129 357 321 357zm227-509c-3-180-88-310-260-310-170 0-264 140-282 310h542" id="ad"/><path d="M277-555c0 244 77 420 297 424 127 2 249-93 255-210h175C980-127 805 20 574 20 258 20 81-222 92-562c11-319 164-533 481-540 237-5 426 165 431 392H829c-7-133-115-242-256-240-209 4-296 166-296 395" id="ae"/><path d="M442-501L326-380V0H141v-1536h185v929c135-169 291-317 436-475h225L566-630 1036 0H819" id="af"/><path d="M341 0H156v-1082h185V0zm-91-1264c-68 0-108-42-109-105 0-62 41-107 109-107s110 44 110 107-42 105-110 105" id="ag"/><path d="M589-945c-131 0-219 81-264 174V0H140v-1082h175l6 136c83-104 191-156 324-156 229 0 346 129 346 387V0H806v-716c-2-153-65-229-217-229" id="ah"/><path d="M521 20C240 20 96-239 96-550c0-303 147-552 427-552 132 0 235 47 309 140l9-120h169V-26c4 277-183 454-459 452-165-1-334-81-400-187l96-111c79 98 176 147 291 147 180 1 288-109 286-290v-93C750-23 649 20 521 20zm48-965c-209 0-287 178-287 416 0 217 86 392 285 392 117 0 202-53 257-159v-494c-57-103-142-155-255-155" id="ai"/><g id="i"><use transform="matrix(0.010850694444444444,0,0,0.010850694444444444,0,0)" xlink:href="#ab"/><use transform="matrix(0.010850694444444444,0,0,0.010850694444444444,14.463975694444445,0)" xlink:href="#ac"/><use transform="matrix(0.010850694444444444,0,0,0.010850694444444444,26.70355902777778,0)" xlink:href="#ad"/><use transform="matrix(0.010850694444444444,0,0,0.010850694444444444,38.4765625,0)" xlink:href="#ae"/><use transform="matrix(0.010850694444444444,0,0,0.010850694444444444,50.10850694444444,0)" xlink:href="#af"/><use transform="matrix(0.010850694444444444,0,0,0.010850694444444444,61.37152777777778,0)" xlink:href="#ag"/><use transform="matrix(0.010850694444444444,0,0,0.010850694444444444,66.76432291666666,0)" xlink:href="#ah"/><use transform="matrix(0.010850694444444444,0,0,0.010850694444444444,79.02560763888889,0)" xlink:href="#ai"/></g><path d="M584 20C278 26 81-227 91-551c10-320 175-545 491-551 308-5 503 247 494 573-9 322-175 543-492 549zm-2-970c-208 0-305 185-305 421 0 216 106 398 307 398 211 0 307-186 307-420 0-214-109-399-309-399" id="aj"/><path d="M456 20C285 20 205-92 206-268v-671H9v-143h197v-262h185v262h202v143H391v671c-9 125 92 149 207 118V0c-49 13-96 20-142 20" id="ak"/><path d="M503-687l240-395h216L605-547 970 0H756L506-405 256 0H41l365-547-354-535h214" id="al"/><g id="j"><use transform="matrix(0.010850694444444444,0,0,0.010850694444444444,0,0)" xlink:href="#ae"/><use transform="matrix(0.010850694444444444,0,0,0.010850694444444444,11.631944444444445,0)" xlink:href="#aj"/><use transform="matrix(0.010850694444444444,0,0,0.010850694444444444,24.305555555555554,0)" xlink:href="#ah"/><use transform="matrix(0.010850694444444444,0,0,0.010850694444444444,36.56684027777778,0)" xlink:href="#ak"/><use transform="matrix(0.010850694444444444,0,0,0.010850694444444444,43.825954861111114,0)" xlink:href="#ad"/><use transform="matrix(0.010850694444444444,0,0,0.010850694444444444,55.59895833333333,0)" xlink:href="#al"/><use transform="matrix(0.010850694444444444,0,0,0.010850694444444444,66.61241319444444,0)" xlink:href="#ak"/></g><path d="M561-1102c238-4 403 126 403 351v498c0 99 13 178 38 237V0H808c-11-21-19-59-26-114C696-25 593 20 474 20c-199 0-368-130-365-320 4-251 214-359 490-356h180v-85c-1-135-86-212-229-212-115 0-232 67-233 171H131c20-205 206-316 430-320zM294-326c0 117 90 185 207 185 122 0 239-75 278-162v-222H634c-227 0-340 66-340 199" id="am"/><path d="M497-251l268-831h189L566 0H425L33-1082h189" id="an"/><g id="k"><use transform="matrix(0.010850694444444444,0,0,0.010850694444444444,0,0)" xlink:href="#am"/><use transform="matrix(0.010850694444444444,0,0,0.010850694444444444,12.08767361111111,0)" xlink:href="#ae"/><use transform="matrix(0.010850694444444444,0,0,0.010850694444444444,23.719618055555554,0)" xlink:href="#ak"/><use transform="matrix(0.010850694444444444,0,0,0.010850694444444444,30.97873263888889,0)" xlink:href="#ag"/><use transform="matrix(0.010850694444444444,0,0,0.010850694444444444,36.37152777777778,0)" xlink:href="#an"/><use transform="matrix(0.010850694444444444,0,0,0.010850694444444444,46.994357638888886,0)" xlink:href="#ad"/></g><path fill="#333" d="M483-459l28 192 41-173 288-1016h162l281 1016 40 176 31-196 226-996h193L1420 0h-175L945-1061l-23-111-23 111L588 0H413L61-1456h192" id="ao"/><g id="l"><use transform="matrix(0.010850694444444444,0,0,0.010850694444444444,0,0)" xlink:href="#S"/><use transform="matrix(0.010850694444444444,0,0,0.010850694444444444,7.107204861111111,0)" xlink:href="#ao"/><use transform="matrix(0.010850694444444444,0,0,0.010850694444444444,26.822916666666664,0)" xlink:href="#H"/><use transform="matrix(0.010850694444444444,0,0,0.010850694444444444,39.0625,0)" xlink:href="#W"/><use transform="matrix(0.010850694444444444,0,0,0.010850694444444444,51.15017361111112,0)" xlink:href="#R"/></g><path fill="#333" d="M663-916c-163-27-288 18-338 148V0H140v-1082h180l3 125c61-97 147-145 258-145 36 0 63 5 82 14v172" id="ap"/><g id="m"><use transform="matrix(0.010850694444444444,0,0,0.010850694444444444,0,0)" xlink:href="#L"/><use transform="matrix(0.010850694444444444,0,0,0.010850694444444444,5.392795138888888,0)" xlink:href="#M"/><use transform="matrix(0.010850694444444444,0,0,0.010850694444444444,17.65407986111111,0)" xlink:href="#P"/><use transform="matrix(0.010850694444444444,0,0,0.010850694444444444,25.36892361111111,0)" xlink:href="#Q"/><use transform="matrix(0.010850694444444444,0,0,0.010850694444444444,38.04253472222222,0)" xlink:href="#ap"/><use transform="matrix(0.010850694444444444,0,0,0.010850694444444444,45.56206597222222,0)" xlink:href="#V"/><use transform="matrix(0.010850694444444444,0,0,0.010850694444444444,65.0390625,0)" xlink:href="#W"/><use transform="matrix(0.010850694444444444,0,0,0.010850694444444444,77.12673611111111,0)" xlink:href="#R"/><use transform="matrix(0.010850694444444444,0,0,0.010850694444444444,84.38585069444444,0)" xlink:href="#L"/><use transform="matrix(0.010850694444444444,0,0,0.010850694444444444,89.77864583333333,0)" xlink:href="#Q"/><use transform="matrix(0.010850694444444444,0,0,0.010850694444444444,102.45225694444444,0)" xlink:href="#M"/></g><path fill="#333" d="M520 20C244 20 95-247 95-550c0-298 151-550 427-552 127 0 227 43 301 130v-564h185V0H838l-9-116C755-25 652 20 520 20zm48-965c-210 0-288 177-288 416 0 218 87 392 286 392 117 0 203-53 257-158v-497c-55-102-140-153-255-153" id="aq"/><g id="n"><use transform="matrix(0.010850694444444444,0,0,0.010850694444444444,0,0)" xlink:href="#aq"/><use transform="matrix(0.010850694444444444,0,0,0.010850694444444444,12.532552083333332,0)" xlink:href="#Q"/></g><g id="o"><use transform="matrix(0.010850694444444444,0,0,0.010850694444444444,0,0)" xlink:href="#Z"/><use transform="matrix(0.010850694444444444,0,0,0.010850694444444444,10.3515625,0)" xlink:href="#Q"/><use transform="matrix(0.010850694444444444,0,0,0.010850694444444444,23.02517361111111,0)" xlink:href="#Y"/></g><g id="p"><use transform="matrix(0.010850694444444444,0,0,0.010850694444444444,0,0)" xlink:href="#M"/><use transform="matrix(0.010850694444444444,0,0,0.010850694444444444,12.261284722222221,0)" xlink:href="#I"/><use transform="matrix(0.010850694444444444,0,0,0.010850694444444444,24.034288194444443,0)" xlink:href="#I"/><use transform="matrix(0.010850694444444444,0,0,0.010850694444444444,35.807291666666664,0)" xlink:href="#aq"/></g><g id="q"><use transform="matrix(0.010850694444444444,0,0,0.010850694444444444,0,0)" xlink:href="#P"/><use transform="matrix(0.010850694444444444,0,0,0.010850694444444444,7.71484375,0)" xlink:href="#Q"/><use transform="matrix(0.010850694444444444,0,0,0.010850694444444444,20.38845486111111,0)" xlink:href="#ap"/></g><g id="r"><use transform="matrix(0.010850694444444444,0,0,0.010850694444444444,0,0)" xlink:href="#Z"/><use transform="matrix(0.010850694444444444,0,0,0.010850694444444444,10.3515625,0)" xlink:href="#Q"/><use transform="matrix(0.010850694444444444,0,0,0.010850694444444444,23.02517361111111,0)" xlink:href="#Y"/><use transform="matrix(0.010850694444444444,0,0,0.010850694444444444,35.275607638888886,0)" xlink:href="#ap"/></g><path fill="#333" d="M486-1476c244 0 401 141 400 380 0 117-54 232-162 345L615-643c-49 54-73 132-73 233H357c6-184 32-232 129-341 78-87 215-190 215-339 0-139-76-224-215-224-128 0-227 74-226 199H75c0-220 182-361 411-361zM458 11c-68 0-108-41-109-104 0-63 41-106 109-106s110 43 110 106S526 11 458 11" id="ar"/><g id="s"><use transform="matrix(0.010850694444444444,0,0,0.010850694444444444,0,0)" xlink:href="#W"/><use transform="matrix(0.010850694444444444,0,0,0.010850694444444444,12.08767361111111,0)" xlink:href="#J"/><use transform="matrix(0.010850694444444444,0,0,0.010850694444444444,23.719618055555554,0)" xlink:href="#J"/><use transform="matrix(0.010850694444444444,0,0,0.010850694444444444,35.3515625,0)" xlink:href="#Q"/><use transform="matrix(0.010850694444444444,0,0,0.010850694444444444,48.02517361111111,0)" xlink:href="#Y"/><use transform="matrix(0.010850694444444444,0,0,0.010850694444444444,60.2756076388889,0)" xlink:href="#M"/><use transform="matrix(0.010850694444444444,0,0,0.010850694444444444,72.53689236111111,0)" xlink:href="#R"/><use transform="matrix(0.010850694444444444,0,0,0.010850694444444444,79.79600694444444,0)" xlink:href="#ar"/></g><path fill="#333" d="M417-1456L893-268l476-1188h249V0h-192c-4-403 4-794 18-1179L966 0H819L342-1176c15 384 23 773 19 1176H169v-1456h248" id="as"/><g id="t"><use transform="matrix(0.010850694444444444,0,0,0.010850694444444444,0,0)" xlink:href="#S"/><use transform="matrix(0.010850694444444444,0,0,0.010850694444444444,7.107204861111111,0)" xlink:href="#as"/><use transform="matrix(0.010850694444444444,0,0,0.010850694444444444,26.50824652777778,0)" xlink:href="#Z"/></g><g id="u"><use transform="matrix(0.010850694444444444,0,0,0.010850694444444444,0,0)" xlink:href="#X"/><use transform="matrix(0.010850694444444444,0,0,0.010850694444444444,12.467447916666666,0)" xlink:href="#W"/><use transform="matrix(0.010850694444444444,0,0,0.010850694444444444,24.55512152777778,0)" xlink:href="#U"/><use transform="matrix(0.010850694444444444,0,0,0.010850694444444444,29.947916666666664,0)" xlink:href="#W"/><use transform="matrix(0.010850694444444444,0,0,0.010850694444444444,42.03559027777778,0)" xlink:href="#M"/><use transform="matrix(0.010850694444444444,0,0,0.010850694444444444,54.296875,0)" xlink:href="#J"/><use transform="matrix(0.010850694444444444,0,0,0.010850694444444444,65.92881944444444,0)" xlink:href="#I"/><use transform="matrix(0.010850694444444444,0,0,0.010850694444444444,77.70182291666666,0)" xlink:href="#aa"/><use transform="matrix(0.010850694444444444,0,0,0.010850694444444444,81.70572916666666,0)" xlink:href="#S"/></g><path fill="#333" d="M613-725l380-731h218L709-543V0H517v-543L15-1456h220" id="at"/><g id="v"><use transform="matrix(0.010850694444444444,0,0,0.010850694444444444,0,0)" xlink:href="#S"/><use transform="matrix(0.010850694444444444,0,0,0.010850694444444444,7.107204861111111,0)" xlink:href="#at"/><use transform="matrix(0.010850694444444444,0,0,0.010850694444444444,19.748263888888886,0)" xlink:href="#Q"/><use transform="matrix(0.010850694444444444,0,0,0.010850694444444444,32.421875,0)" xlink:href="#Y"/><use transform="matrix(0.010850694444444444,0,0,0.010850694444444444,44.67230902777778,0)" xlink:href="#ap"/></g><g id="w"><use transform="matrix(0.010850694444444444,0,0,0.010850694444444444,0,0)" xlink:href="#X"/><use transform="matrix(0.010850694444444444,0,0,0.010850694444444444,12.467447916666666,0)" xlink:href="#W"/><use transform="matrix(0.010850694444444444,0,0,0.010850694444444444,24.55512152777778,0)" xlink:href="#U"/><use transform="matrix(0.010850694444444444,0,0,0.010850694444444444,29.947916666666664,0)" xlink:href="#W"/><use transform="matrix(0.010850694444444444,0,0,0.010850694444444444,42.03559027777778,0)" xlink:href="#M"/><use transform="matrix(0.010850694444444444,0,0,0.010850694444444444,54.296875,0)" xlink:href="#J"/><use transform="matrix(0.010850694444444444,0,0,0.010850694444444444,65.92881944444444,0)" xlink:href="#I"/></g><path fill="#333" d="M538-131c121 0 232-49 232-156 0-50-20-88-56-117-73-60-334-92-420-143-92-55-162-110-162-238 0-190 192-317 400-317 223 0 414 129 413 338H759c0-108-110-186-227-186-119 0-215 53-215 159 0 45 18 78 53 101 76 52 331 90 416 139 98 57 169 115 169 251C955-92 760 20 538 20c-176 0-314-68-386-174-38-55-57-115-57-179h185c6 129 116 202 258 202" id="au"/><g id="x"><use transform="matrix(0.010850694444444444,0,0,0.010850694444444444,0,0)" xlink:href="#L"/><use transform="matrix(0.010850694444444444,0,0,0.010850694444444444,5.392795138888888,0)" xlink:href="#au"/></g><path fill="#333" d="M575-140c162 0 281-82 281-235 0-61-21-113-64-155s-116-82-218-114c-142-45-245-100-310-170s-98-158-98-265c-1-227 148-372 358-394v-219h149v220c228 31 358 198 355 464H844c3-172-86-306-248-307-154-1-245 83-245 233 0 68 23 122 67 162s116 77 218 110c174 58 291 116 364 248 29 52 41 114 41 185 0 238-159 373-386 394v191H507V17C264-4 108-164 110-429h185c-2 182 100 289 280 289" id="av"/><path fill="#333" d="M729 0H543v-1233l-373 137v-168l530-199h29V0" id="aw"/><path fill="#333" d="M574-1476c351 0 454 237 460 615v240c0 217-37 378-111 483S733 20 576 20c-346 0-454-246-461-616v-247c0-214 37-373 111-477s190-156 348-156zm275 905c0-337 59-752-275-753-95 0-160 38-207 107-80 118-66 409-67 625 0 157 22 273 68 348s115 113 208 113c91 0 160-35 204-106s69-182 69-334" id="ax"/><g id="y"><use transform="matrix(0.010850694444444444,0,0,0.010850694444444444,0,0)" xlink:href="#av"/><use transform="matrix(0.010850694444444444,0,0,0.010850694444444444,12.47829861111111,0)" xlink:href="#aw"/><use transform="matrix(0.010850694444444444,0,0,0.010850694444444444,24.95659722222222,0)" xlink:href="#ax"/><use transform="matrix(0.010850694444444444,0,0,0.010850694444444444,37.43489583333333,0)" xlink:href="#ax"/><use transform="matrix(0.010850694444444444,0,0,0.010850694444444444,49.91319444444444,0)" xlink:href="#ax"/><use transform="matrix(0.010850694444444444,0,0,0.010850694444444444,62.39149305555555,0)" xlink:href="#aa"/><use transform="matrix(0.010850694444444444,0,0,0.010850694444444444,66.39539930555556,0)" xlink:href="#S"/></g><path fill="#333" d="M1160-420C1159-145 963 0 674 0H169v-1456h476c294-1 476 112 476 388 0 153-99 253-216 302 146 38 255 167 255 346zM678-157c171 2 289-95 289-261 0-175-95-263-286-263H361v524h317zm250-912c-2-172-104-229-283-229H361v463h290c157 3 278-84 277-234" id="ay"/><g id="z"><use transform="matrix(0.010850694444444444,0,0,0.010850694444444444,0,0)" xlink:href="#G"/><use transform="matrix(0.010850694444444444,0,0,0.010850694444444444,14.463975694444445,0)" xlink:href="#H"/><use transform="matrix(0.010850694444444444,0,0,0.010850694444444444,26.70355902777778,0)" xlink:href="#I"/><use transform="matrix(0.010850694444444444,0,0,0.010850694444444444,38.4765625,0)" xlink:href="#J"/><use transform="matrix(0.010850694444444444,0,0,0.010850694444444444,50.10850694444444,0)" xlink:href="#K"/><use transform="matrix(0.010850694444444444,0,0,0.010850694444444444,61.37152777777778,0)" xlink:href="#L"/><use transform="matrix(0.010850694444444444,0,0,0.010850694444444444,66.76432291666666,0)" xlink:href="#M"/><use transform="matrix(0.010850694444444444,0,0,0.010850694444444444,79.02560763888889,0)" xlink:href="#N"/><use transform="matrix(0.010850694444444444,0,0,0.010850694444444444,91.49305555555556,0)" xlink:href="#ay"/><use transform="matrix(0.010850694444444444,0,0,0.010850694444444444,105.32769097222224,0)" xlink:href="#W"/><use transform="matrix(0.010850694444444444,0,0,0.010850694444444444,117.41536458333334,0)" xlink:href="#U"/><use transform="matrix(0.010850694444444444,0,0,0.010850694444444444,122.80815972222224,0)" xlink:href="#W"/><use transform="matrix(0.010850694444444444,0,0,0.010850694444444444,134.89583333333334,0)" xlink:href="#M"/><use transform="matrix(0.010850694444444444,0,0,0.010850694444444444,147.15711805555557,0)" xlink:href="#J"/><use transform="matrix(0.010850694444444444,0,0,0.010850694444444444,158.78906250000003,0)" xlink:href="#I"/></g><use transform="matrix(0.010850694444444444,0,0,0.010850694444444444,0,0)" xlink:href="#aw" id="A"/><path fill="#333" d="M569-1476c255 0 440 146 439 390 0 143-91 314-274 512L344-151h731V0H121v-133l504-560c75-85 125-155 155-207 105-184 6-424-211-424-183 0-293 113-291 297H93c-3-270 199-449 476-449" id="az"/><use transform="matrix(0.010850694444444444,0,0,0.010850694444444444,0,0)" xlink:href="#az" id="B"/><path fill="#333" d="M832-402c-1-179-119-264-303-265H390v-151h139c164 0 281-91 281-250 0-171-85-256-255-256-154 0-265 99-263 250H107c-4-235 205-402 448-402 266 0 444 150 440 412-2 148-109 272-229 317 147 45 249 158 251 341 3 262-197 426-461 426C299 20 91-135 94-384h186c-2 156 116 253 276 253 176 0 277-96 276-271" id="aA"/><use transform="matrix(0.010850694444444444,0,0,0.010850694444444444,0,0)" xlink:href="#aA" id="C"/><path fill="#333" d="M902-489h202v151H902V0H716v-338H53v-109l652-1009h197v967zm-639 0h453v-714l-22 40" id="aB"/><use transform="matrix(0.010850694444444444,0,0,0.010850694444444444,0,0)" xlink:href="#aB" id="D"/><path fill="#333" d="M884-462c0-185-111-323-291-323-113 0-183 39-239 93l-148-38 74-726h746v171H437l-44 397c71-42 152-63 243-63 273-2 433 205 433 487 0 293-170 484-461 484-260 0-436-159-454-403h175c20 156 111 252 279 252 182 0 276-140 276-331" id="aC"/><use transform="matrix(0.010850694444444444,0,0,0.010850694444444444,0,0)" xlink:href="#aC" id="E"/><path fill="#333" d="M132-554c0-555 187-908 715-903v157c-320-8-501 179-526 477 77-88 181-132 314-132 259 0 417 214 417 480 0 286-172 495-451 495-293 0-469-266-469-574zm737 88c0-181-95-335-265-335-133 0-252 96-286 200v68c-6 207 101 397 283 400 175 3 268-150 268-333" id="aD"/><use transform="matrix(0.010850694444444444,0,0,0.010850694444444444,0,0)" xlink:href="#aD" id="F"/></defs></g></svg>