<svg xmlns="http://www.w3.org/2000/svg" xmlns:xlink="http://www.w3.org/1999/xlink" xmlns:lucid="lucid" width="1025.33" height="510.6"><g transform="translate(-220 -40)" lucid:page-tab-id="0_0"><path d="M0 0h1760v1360H0z" fill="#fff"/><path d="M480 315c0-8.28 6.72-15 15-15h206c8.28 0 15 6.72 15 15v134.07c0 8.28-6.72 15-15 15H495c-8.28 0-15-6.72-15-15zM825.33 383.6c0-8.3 6.72-15 15-15h370c8.3 0 15 6.7 15 15v132c0 8.28-6.7 15-15 15h-370c-8.28 0-15-6.72-15-15zM480 95c0-8.28 6.72-15 15-15h206c8.28 0 15 6.72 15 15v130c0 8.28-6.72 15-15 15H495c-8.28 0-15-6.72-15-15z" stroke="#ccc" stroke-width="3" fill="#fff"/><path d="M290 98.3c-23 0-41.7 18.7-41.7 41.7 0 23 18.7 41.7 41.7 41.7 23 0 41.7-18.7 41.7-41.7 0-23-18.7-41.7-41.7-41.7zm0 12.5c6.9 0 12.5 5.6 12.5 12.5 0 7-5.6 12.5-12.5 12.5s-12.5-5.5-12.5-12.5c0-6.9 5.6-12.5 12.5-12.5zm0 59.2c-10.4 0-19.6-5.3-25-13.4.1-8.3 16.7-12.8 25-12.8s24.9 4.5 25 12.8c-5.4 8.1-14.6 13.4-25 13.4z" stroke="#000" stroke-opacity="0" fill="#ef8d22"/><path d="M240 90h100v100H240z" stroke="#000" stroke-opacity="0" fill-opacity="0"/><path d="M588.3 135.92l-18.32-31.84c-1.43-2.48-4.02-4-6.97-4.08H526.3c-2.86.08-5.46 1.6-6.9 4.08l-18.3 31.76c-1.44 2.4-1.44 5.44 0 7.92l18.3 32c1.44 2.56 4.04 4.16 6.9 4.24H563c2.96-.08 5.55-1.68 6.98-4.24L588.3 144c1.43-2.56 1.43-5.6 0-8.08z" stroke="#000" stroke-opacity="0" fill="#4285f4"/><path d="M564.53 125.84l-39.77.08 14.57 14.56-14.57 9.36 12.87 12.8-1.34 2.56L551.1 180h11.9c2.94-.16 5.53-1.76 6.96-4.24l16.27-28.24-21.72-21.68z" stroke="#000" stroke-opacity="0" fill-opacity=".07"/><path d="M545.04 136.8l19.5-10.96-17.7-10.16c-1.35-.72-2.96-.72-4.3 0l-17.78 10.24 20.28 10.88z" stroke="#000" stroke-opacity="0" fill="#fff"/><path d="M545.04 141.36L523.77 130v17.36c-.1 1.28.63 2.4 1.7 3.04l9.65 5.6c.54.32.8.88.8 1.52v6.96c0 .4.28.72.55.88.35.24.7.24 1.07 0l26.27-14.96c1.18-.56 1.8-1.76 1.8-3.04v-17.52l-20.56 11.52z" stroke="#000" stroke-opacity="0" fill="#fff"/><g opacity=".8" stroke="#000" stroke-opacity="0"><path d="M913.48 466.93c0-2.86-1.85-5.2-4.15-5.2h-33.3c-2.28 0-4.18 2.34-4.18 5.2v31.04c0 2.86 1.9 5.15 4.2 5.15h29.13l8.35 10.37-.05-46.57zm-8.3 25.83h-25v-5.16h25v5.16zm0-7.76h-25v-5.16h25V485zm0-7.76h-25v-5.16h25v5.16z"/><path d="M867.7 456.56h49.98v62.1H867.7z" fill-opacity="0"/></g><path d="M614.63 108.96h96v62.08h-96z" stroke="#000" stroke-opacity="0" stroke-width="2" fill="#fff" fill-opacity="0"/><use xlink:href="#a" transform="matrix(1,0,0,1,619.6268124503749,113.95833333333334) translate(0 34.095486111111114)"/><path d="M480 204.07h236v91.04H480z" stroke="#ccc" stroke-width="3" fill="#fff"/><path d="M480 295.1h236V380H480z" stroke="#ccc" stroke-width="3" fill="#fff"/><g opacity=".8" stroke="#000" stroke-opacity="0"><path d="M520 224.7h55.3v55.93H520z" fill-opacity="0"/><path d="M568.4 238.68h-4.6v20.98h-29.97v4.64c0 1.3 1.05 2.35 2.32 2.35h25.33l9.24 9.34v-34.97c0-1.28-1.05-2.35-2.32-2.35zm-9.24 14v-21c0-1.27-1-2.34-2.27-2.34h-30c-1.26 0-2.3 1.07-2.3 2.35v32.6l9.23-9.28h23.06c1.27 0 2.26-1.07 2.26-2.35z"/></g><path d="M614.63 218.55h96v62.08h-96z" stroke="#000" stroke-opacity="0" stroke-width="2" fill="#fff" fill-opacity="0"/><use xlink:href="#b" transform="matrix(1,0,0,1,619.6268124503749,223.54916666665696) translate(0 34.095486111111114)"/><path d="M614.63 306.5h96v62.1h-96z" stroke="#000" stroke-opacity="0" stroke-width="2" fill="#fff" fill-opacity="0"/><use xlink:href="#b" transform="matrix(1,0,0,1,619.6268124503749,311.51416666666177) translate(0 34.095486111111114)"/><path d="M614.63 394.48h96v62.08h-96z" stroke="#000" stroke-opacity="0" stroke-width="2" fill="#fff" fill-opacity="0"/><use xlink:href="#b" transform="matrix(1,0,0,1,619.6268124503749,399.4791666666667) translate(0 34.095486111111114)"/><path d="M825.33 195c0-8.28 6.72-15 15-15h370c8.3 0 15 6.72 15 15v127.98c0 8.3-6.7 15-15 15h-370c-8.28 0-15-6.7-15-15z" stroke="#ccc" stroke-width="3" fill="#fff3e0"/><path d="M825.33 277.56h400V360h-400zM825.33 360h400v82.04h-400z" stroke="#ccc" stroke-width="3" fill="#fff"/><path d="M959.96 198.96h96v62.08h-96z" stroke="#000" stroke-opacity="0" stroke-width="2" fill="#fff" fill-opacity="0"/><use xlink:href="#b" transform="matrix(1,0,0,1,964.9601457837082,203.95833333333337) translate(0 34.095486111111114)"/><path d="M959.96 356.05h245.37v88.13H959.96z" stroke="#000" stroke-opacity="0" stroke-width="2" fill="#fff" fill-opacity="0"/><use xlink:href="#c" transform="matrix(1,0,0,1,964.9601457837083,361.05187500000363) translate(0 47.095486111111114)"/><use xlink:href="#d" transform="matrix(1,0,0,1,964.9601457837083,361.05187500000363) translate(69.21657986111111 47.095486111111114)"/><use xlink:href="#e" transform="matrix(1,0,0,1,964.9601457837083,361.05187500000363) translate(111.59939236111111 47.095486111111114)"/><path d="M959.96 450.4h185.37v62.1H959.96z" stroke="#000" stroke-opacity="0" stroke-width="2" fill="#fff" fill-opacity="0"/><use xlink:href="#f" transform="matrix(1,0,0,1,964.9601457837083,455.4091666666764) translate(0 34.095486111111114)"/><path d="M959.96 287.74h185.37v62.08H959.96z" stroke="#000" stroke-opacity="0" stroke-width="2" fill="#fff" fill-opacity="0"/><use xlink:href="#g" transform="matrix(1,0,0,1,964.9601457837082,292.73624999999754) translate(0 34.095486111111114)"/><use xlink:href="#h" transform="matrix(1,0,0,1,964.9601457837082,292.73624999999754) translate(84.89583333333333 34.095486111111114)"/><g opacity=".8" stroke="#000" stroke-opacity="0"><path d="M908.44 299.28H871.6c-2.54 0-4.6 1.9-4.6 4.22l-.04 37.7 9.23-8.4h32.24c2.54 0 4.65-1.86 4.65-4.17V303.5c0-2.3-2.12-4.22-4.66-4.22zm-25.33 18.84h-4.58v-4.17h4.6v4.17zm9.24 0h-4.64v-4.17h4.64v4.17zm9.2 0h-4.6v-4.17h4.6v4.17z"/><path d="M862.36 295.1h55.32v50.26h-55.32z" fill-opacity="0"/></g><path d="M895.5 395h13.83v-6H895.5v6zm0 20.97h13.83v-6H895.5v6zm16.63 13.48h-38.88c-3.05 0-5.55-2.7-5.55-6v-41.94c0-3.28 2.5-5.98 5.55-5.98h38.88c3.05 0 5.55 2.7 5.55 6v41.94c0 3.3-2.5 6-5.55 6zm-36.1-29.98h13.86v-14.94h-13.86v14.94zm2.76-11.98h8.34v9h-8.35v-9zm-2.76 32.94h13.85V405.5h-13.86v14.94zm2.75-11.97h8.34v9h-8.35v-9z" stroke="#000" stroke-opacity="0" opacity=".8"/><path d="M716.55 202.38L839.1 178.7" stroke="#ccc" stroke-width="2" fill="none"/><path d="M716.62 202.57h-4.1l-.08-.4 3.95-.78zM843.12 178.5h-2.88l-1.2.16-.17-.93 3.95-.76z" fill="#ccc"/><path d="M714.94 294.5l108.83 223.14" stroke="#ccc" stroke-width="2" fill="none"/><path d="M715.85 294.1l-1.8.87-.67-1.36h2.23zM824.38 519.88l.66 1.6-.42.2-1.76-3.62 1.2-.6z" fill="#ccc"/><path d="M341 140h119" stroke="#666" stroke-width="2" fill="none"/><path d="M341.03 141H340v-2h1.03z" fill="#666"/><path d="M475.26 140L461 144.64v-9.28z" stroke="#666" stroke-width="2" fill="#666"/><path d="M662.63 172.04v28" stroke="#666" stroke-width="2" fill="none"/><path d="M663.63 172.07h-2v-1.03h2z" fill="#666"/><path d="M662.63 215.3L658 201.06h9.26z" stroke="#666" stroke-width="2" fill="#666"/><path d="M290 208.5v267.97h532.83" stroke="#666" stroke-width="2" fill="none"/><path d="M290 193.24l4.64 14.26h-9.28z" stroke="#666" stroke-width="2" fill="#666"/><path d="M823.83 477.47h-1.02v-2h1.03z" fill="#666"/><path d="M700 142h96v62.07h-96z" stroke="#000" stroke-opacity="0" stroke-width="2" fill="#fff" fill-opacity="0"/><use xlink:href="#i" transform="matrix(1,0,0,1,705,146.98666666665696) translate(0 21.07465277777778)"/><use xlink:href="#j" transform="matrix(1,0,0,1,705,146.98666666665696) translate(23.828124999999996 21.07465277777778)"/><use xlink:href="#k" transform="matrix(1,0,0,1,705,146.98666666665696) translate(0 47.11631944444444)"/><path d="M320 468.5h140v62.1H320z" stroke="#000" stroke-opacity="0" stroke-width="2" fill="#fff" fill-opacity="0"/><use xlink:href="#l" transform="matrix(1,0,0,1,325,473.5149466158379) translate(0 34.095486111111114)"/><use xlink:href="#m" transform="matrix(1,0,0,1,325,473.5149466158379) translate(23.828124999999996 34.095486111111114)"/><path d="M340 60h180v88.13H340z" stroke="#000" stroke-opacity="0" stroke-width="2" fill="#fff" fill-opacity="0"/><g><use xlink:href="#n" transform="matrix(1,0,0,1,345,65) translate(0 34.07465277777778)"/><use xlink:href="#o" transform="matrix(1,0,0,1,345,65) translate(23.828124999999996 34.07465277777778)"/><use xlink:href="#p" transform="matrix(1,0,0,1,345,65) translate(0 60.11631944444444)"/></g><g opacity=".8" stroke="#000" stroke-opacity="0"><path d="M517.03 394.48h55.3v55.93h-55.3z" fill-opacity="0"/><path d="M565.43 408.46h-4.6v20.98h-29.97v4.64c0 1.28 1.05 2.35 2.32 2.35h25.34l9.23 9.34V410.8c0-1.28-1.05-2.34-2.32-2.34zm-9.24 13.98v-20.97c0-1.3-1-2.35-2.28-2.35h-29.97c-1.28 0-2.33 1.06-2.33 2.35v32.6l9.24-9.28h23.06c1.28 0 2.27-1.07 2.27-2.36z"/></g><g opacity=".8" stroke="#000" stroke-opacity="0"><path d="M520 312.67h55.3v55.93H520z" fill-opacity="0"/><path d="M568.4 326.65h-4.6v20.97h-29.97v4.65c0 1.28 1.05 2.34 2.32 2.34h25.33l9.24 9.36V329c0-1.3-1.05-2.35-2.32-2.35zm-9.24 13.98v-20.97c0-1.3-1-2.35-2.27-2.35h-30c-1.26 0-2.3 1.07-2.3 2.36v32.6l9.23-9.28h23.06c1.27 0 2.26-1.06 2.26-2.35z"/></g><g opacity=".8" stroke="#000" stroke-opacity="0"><path d="M857.85 198.96h69.68v70h-69.68z" fill-opacity="0"/><path d="M918.82 216.46h-5.8v26.25h-37.75v5.82c0 1.6 1.32 2.94 2.92 2.94h31.9l11.64 11.7V219.4c0-1.6-1.32-2.94-2.92-2.94zm-11.64 17.5V207.7c0-1.6-1.25-2.93-2.86-2.93h-37.76c-1.6 0-2.93 1.33-2.93 2.94v40.82l11.64-11.62h29.05c1.6 0 2.86-1.33 2.86-2.94z"/></g><defs><path fill="#333" d="M973-380H363L226 0H28l556-1456h168L1309 0h-197zM421-538h495l-248-681" id="q"/><path fill="#333" d="M521 20C240 20 96-239 96-550c0-303 147-552 427-552 132 0 235 47 309 140l9-120h169V-26c4 277-183 454-459 452-165-1-334-81-400-187l96-111c79 98 176 147 291 147 180 1 288-109 286-290v-93C750-23 649 20 521 20zm48-965c-209 0-287 178-287 416 0 217 86 392 285 392 117 0 202-53 257-159v-494c-57-103-142-155-255-155" id="r"/><path fill="#333" d="M599-131c141 0 220-65 285-146l113 88C906-50 770 20 589 20 281 21 93-214 93-545c0-223 93-397 233-485 74-48 154-72 240-72 300 2 449 218 445 537v77H278c0 197 129 357 321 357zm227-509c-3-180-88-310-260-310-170 0-264 140-282 310h542" id="s"/><path fill="#333" d="M589-945c-131 0-219 81-264 174V0H140v-1082h175l6 136c83-104 191-156 324-156 229 0 346 129 346 387V0H806v-716c-2-153-65-229-217-229" id="t"/><path fill="#333" d="M456 20C285 20 205-92 206-268v-671H9v-143h197v-262h185v262h202v143H391v671c-9 125 92 149 207 118V0c-49 13-96 20-142 20" id="u"/><g id="a"><use transform="matrix(0.010850694444444444,0,0,0.010850694444444444,0,0)" xlink:href="#q"/><use transform="matrix(0.010850694444444444,0,0,0.010850694444444444,14.496527777777777,0)" xlink:href="#r"/><use transform="matrix(0.010850694444444444,0,0,0.010850694444444444,26.963975694444443,0)" xlink:href="#s"/><use transform="matrix(0.010850694444444444,0,0,0.010850694444444444,38.736979166666664,0)" xlink:href="#t"/><use transform="matrix(0.010850694444444444,0,0,0.010850694444444444,50.998263888888886,0)" xlink:href="#u"/></g><path fill="#333" d="M375 0H183v-1456h192V0" id="v"/><g id="b"><use transform="matrix(0.010850694444444444,0,0,0.010850694444444444,0,0)" xlink:href="#v"/><use transform="matrix(0.010850694444444444,0,0,0.010850694444444444,6.043836805555555,0)" xlink:href="#t"/><use transform="matrix(0.010850694444444444,0,0,0.010850694444444444,18.30512152777778,0)" xlink:href="#u"/><use transform="matrix(0.010850694444444444,0,0,0.010850694444444444,25.56423611111111,0)" xlink:href="#s"/><use transform="matrix(0.010850694444444444,0,0,0.010850694444444444,37.33723958333333,0)" xlink:href="#t"/><use transform="matrix(0.010850694444444444,0,0,0.010850694444444444,49.59852430555556,0)" xlink:href="#u"/></g><path fill="#333" d="M277-555c0 244 77 420 297 424 127 2 249-93 255-210h175C980-127 805 20 574 20 258 20 81-222 92-562c11-319 164-533 481-540 237-5 426 165 431 392H829c-7-133-115-242-256-240-209 4-296 166-296 395" id="w"/><path fill="#333" d="M341 0H156v-1082h185V0zm-91-1264c-68 0-108-42-109-105 0-62 41-107 109-107s110 44 110 107-42 105-110 105" id="x"/><path fill="#333" d="M584 20C278 26 81-227 91-551c10-320 175-545 491-551 308-5 503 247 494 573-9 322-175 543-492 549zm-2-970c-208 0-305 185-305 421 0 216 106 398 307 398 211 0 307-186 307-420 0-214-109-399-309-399" id="y"/><g id="c"><use transform="matrix(0.010850694444444444,0,0,0.010850694444444444,0,0)" xlink:href="#q"/><use transform="matrix(0.010850694444444444,0,0,0.010850694444444444,14.496527777777777,0)" xlink:href="#w"/><use transform="matrix(0.010850694444444444,0,0,0.010850694444444444,26.12847222222222,0)" xlink:href="#u"/><use transform="matrix(0.010850694444444444,0,0,0.010850694444444444,33.38758680555556,0)" xlink:href="#x"/><use transform="matrix(0.010850694444444444,0,0,0.010850694444444444,38.78038194444444,0)" xlink:href="#y"/><use transform="matrix(0.010850694444444444,0,0,0.010850694444444444,51.45399305555556,0)" xlink:href="#t"/></g><path fill="#333" d="M561-1102c238-4 403 126 403 351v498c0 99 13 178 38 237V0H808c-11-21-19-59-26-114C696-25 593 20 474 20c-199 0-368-130-365-320 4-251 214-359 490-356h180v-85c-1-135-86-212-229-212-115 0-232 67-233 171H131c20-205 206-316 430-320zM294-326c0 117 90 185 207 185 122 0 239-75 278-162v-222H634c-227 0-340 66-340 199" id="z"/><path fill="#333" d="M520 20C244 20 95-247 95-550c0-298 151-550 427-552 127 0 227 43 301 130v-564h185V0H838l-9-116C755-25 652 20 520 20zm48-965c-210 0-288 177-288 416 0 218 87 392 286 392 117 0 203-53 257-158v-497c-55-102-140-153-255-153" id="A"/><g id="d"><use transform="matrix(0.010850694444444444,0,0,0.010850694444444444,0,0)" xlink:href="#z"/><use transform="matrix(0.010850694444444444,0,0,0.010850694444444444,12.08767361111111,0)" xlink:href="#t"/><use transform="matrix(0.010850694444444444,0,0,0.010850694444444444,24.348958333333332,0)" xlink:href="#A"/></g><path fill="#333" d="M632-1102c291 0 422 251 422 573 0 297-141 548-419 549-131 0-235-42-310-125v521H140v-1498h169l9 120c75-93 180-140 314-140zm-53 971c207 0 290-180 290-419 0-218-92-395-292-395-112 0-196 50-252 149v517c55 99 140 148 254 148" id="B"/><path fill="#333" d="M663-916c-163-27-288 18-338 148V0H140v-1082h180l3 125c61-97 147-145 258-145 36 0 63 5 82 14v172" id="C"/><path fill="#333" d="M1240-945c-141 0-250 95-250 227V0H804v-709c0-157-77-236-231-236-121 0-204 52-249 155V0H139v-1082h175l5 120c79-93 186-140 321-140 151 0 254 58 309 174 69-98 181-174 345-174 237 0 362 126 362 377V0h-185v-714c-2-159-67-231-231-231" id="D"/><path fill="#333" d="M538-131c121 0 232-49 232-156 0-50-20-88-56-117-73-60-334-92-420-143-92-55-162-110-162-238 0-190 192-317 400-317 223 0 414 129 413 338H759c0-108-110-186-227-186-119 0-215 53-215 159 0 45 18 78 53 101 76 52 331 90 416 139 98 57 169 115 169 251C955-92 760 20 538 20c-176 0-314-68-386-174-38-55-57-115-57-179h185c6 129 116 202 258 202" id="E"/><g id="e"><use transform="matrix(0.010850694444444444,0,0,0.010850694444444444,0,0)" xlink:href="#B"/><use transform="matrix(0.010850694444444444,0,0,0.010850694444444444,12.467447916666666,0)" xlink:href="#z"/><use transform="matrix(0.010850694444444444,0,0,0.010850694444444444,24.55512152777778,0)" xlink:href="#C"/><use transform="matrix(0.010850694444444444,0,0,0.010850694444444444,31.640625,0)" xlink:href="#z"/><use transform="matrix(0.010850694444444444,0,0,0.010850694444444444,43.728298611111114,0)" xlink:href="#D"/><use transform="matrix(0.010850694444444444,0,0,0.010850694444444444,63.2052951388889,0)" xlink:href="#s"/><use transform="matrix(0.010850694444444444,0,0,0.010850694444444444,74.97829861111111,0)" xlink:href="#u"/><use transform="matrix(0.010850694444444444,0,0,0.010850694444444444,82.23741319444444,0)" xlink:href="#s"/><use transform="matrix(0.010850694444444444,0,0,0.010850694444444444,94.01041666666666,0)" xlink:href="#C"/><use transform="matrix(0.010850694444444444,0,0,0.010850694444444444,101.52994791666666,0)" xlink:href="#E"/></g><path fill="#333" d="M1161-1018c0 201-122 330-278 388l342 618V0h-206L703-589H361V0H168v-1456h482c310-2 511 139 511 438zm-193 0c0-187-120-280-313-280H361v552h295c179 3 313-101 312-272" id="F"/><g id="f"><use transform="matrix(0.010850694444444444,0,0,0.010850694444444444,0,0)" xlink:href="#F"/><use transform="matrix(0.010850694444444444,0,0,0.010850694444444444,13.682725694444445,0)" xlink:href="#s"/><use transform="matrix(0.010850694444444444,0,0,0.010850694444444444,25.455729166666664,0)" xlink:href="#E"/><use transform="matrix(0.010850694444444444,0,0,0.010850694444444444,36.9140625,0)" xlink:href="#B"/><use transform="matrix(0.010850694444444444,0,0,0.010850694444444444,49.381510416666664,0)" xlink:href="#y"/><use transform="matrix(0.010850694444444444,0,0,0.010850694444444444,62.05512152777778,0)" xlink:href="#t"/><use transform="matrix(0.010850694444444444,0,0,0.010850694444444444,74.31640625,0)" xlink:href="#E"/><use transform="matrix(0.010850694444444444,0,0,0.010850694444444444,85.77473958333333,0)" xlink:href="#s"/></g><path fill="#333" d="M1175-1298H707V0H516v-1298H49v-158h1126v158" id="G"/><g id="g"><use transform="matrix(0.010850694444444444,0,0,0.010850694444444444,0,0)" xlink:href="#G"/><use transform="matrix(0.010850694444444444,0,0,0.010850694444444444,12.445746527777777,0)" xlink:href="#C"/><use transform="matrix(0.010850694444444444,0,0,0.010850694444444444,19.53125,0)" xlink:href="#z"/><use transform="matrix(0.010850694444444444,0,0,0.010850694444444444,31.61892361111111,0)" xlink:href="#x"/><use transform="matrix(0.010850694444444444,0,0,0.010850694444444444,37.01171875,0)" xlink:href="#t"/><use transform="matrix(0.010850694444444444,0,0,0.010850694444444444,49.27300347222222,0)" xlink:href="#x"/><use transform="matrix(0.010850694444444444,0,0,0.010850694444444444,54.66579861111111,0)" xlink:href="#t"/><use transform="matrix(0.010850694444444444,0,0,0.010850694444444444,66.92708333333333,0)" xlink:href="#r"/></g><path fill="#333" d="M589-945c-131 0-219 81-264 174V0H140v-1536h185v585c82-101 189-151 320-151 229 0 346 129 346 387V0H806v-716c-2-153-65-229-217-229" id="H"/><g id="h"><use transform="matrix(0.010850694444444444,0,0,0.010850694444444444,0,0)" xlink:href="#B"/><use transform="matrix(0.010850694444444444,0,0,0.010850694444444444,12.467447916666666,0)" xlink:href="#H"/><use transform="matrix(0.010850694444444444,0,0,0.010850694444444444,24.70703125,0)" xlink:href="#C"/><use transform="matrix(0.010850694444444444,0,0,0.010850694444444444,31.79253472222222,0)" xlink:href="#z"/><use transform="matrix(0.010850694444444444,0,0,0.010850694444444444,43.88020833333333,0)" xlink:href="#E"/><use transform="matrix(0.010850694444444444,0,0,0.010850694444444444,55.33854166666666,0)" xlink:href="#s"/><use transform="matrix(0.010850694444444444,0,0,0.010850694444444444,67.11154513888889,0)" xlink:href="#E"/></g><path fill="#333" d="M569-1476c255 0 440 146 439 390 0 143-91 314-274 512L344-151h731V0H121v-133l504-560c75-85 125-155 155-207 105-184 6-424-211-424-183 0-293 113-291 297H93c-3-270 199-449 476-449" id="I"/><path fill="#333" d="M258 11c-71 0-114-43-114-108 0-67 42-112 114-112s116 45 116 112c-1 65-45 108-116 108" id="J"/><g id="i"><use transform="matrix(0.010850694444444444,0,0,0.010850694444444444,0,0)" xlink:href="#I"/><use transform="matrix(0.010850694444444444,0,0,0.010850694444444444,12.47829861111111,0)" xlink:href="#J"/></g><g id="j"><use transform="matrix(0.010850694444444444,0,0,0.010850694444444444,0,0)" xlink:href="#v"/><use transform="matrix(0.010850694444444444,0,0,0.010850694444444444,6.043836805555555,0)" xlink:href="#t"/><use transform="matrix(0.010850694444444444,0,0,0.010850694444444444,18.30512152777778,0)" xlink:href="#u"/><use transform="matrix(0.010850694444444444,0,0,0.010850694444444444,25.56423611111111,0)" xlink:href="#s"/><use transform="matrix(0.010850694444444444,0,0,0.010850694444444444,37.33723958333333,0)" xlink:href="#t"/><use transform="matrix(0.010850694444444444,0,0,0.010850694444444444,49.59852430555556,0)" xlink:href="#u"/></g><g id="k"><use transform="matrix(0.010850694444444444,0,0,0.010850694444444444,0,0)" xlink:href="#D"/><use transform="matrix(0.010850694444444444,0,0,0.010850694444444444,19.47699652777778,0)" xlink:href="#z"/><use transform="matrix(0.010850694444444444,0,0,0.010850694444444444,31.56467013888889,0)" xlink:href="#u"/><use transform="matrix(0.010850694444444444,0,0,0.010850694444444444,38.82378472222222,0)" xlink:href="#w"/><use transform="matrix(0.010850694444444444,0,0,0.010850694444444444,50.455729166666664,0)" xlink:href="#H"/></g><path fill="#333" d="M832-402c-1-179-119-264-303-265H390v-151h139c164 0 281-91 281-250 0-171-85-256-255-256-154 0-265 99-263 250H107c-4-235 205-402 448-402 266 0 444 150 440 412-2 148-109 272-229 317 147 45 249 158 251 341 3 262-197 426-461 426C299 20 91-135 94-384h186c-2 156 116 253 276 253 176 0 277-96 276-271" id="K"/><g id="l"><use transform="matrix(0.010850694444444444,0,0,0.010850694444444444,0,0)" xlink:href="#K"/><use transform="matrix(0.010850694444444444,0,0,0.010850694444444444,12.47829861111111,0)" xlink:href="#J"/></g><g id="m"><use transform="matrix(0.010850694444444444,0,0,0.010850694444444444,0,0)" xlink:href="#F"/><use transform="matrix(0.010850694444444444,0,0,0.010850694444444444,13.682725694444445,0)" xlink:href="#s"/><use transform="matrix(0.010850694444444444,0,0,0.010850694444444444,25.455729166666664,0)" xlink:href="#E"/><use transform="matrix(0.010850694444444444,0,0,0.010850694444444444,36.9140625,0)" xlink:href="#B"/><use transform="matrix(0.010850694444444444,0,0,0.010850694444444444,49.381510416666664,0)" xlink:href="#y"/><use transform="matrix(0.010850694444444444,0,0,0.010850694444444444,62.05512152777778,0)" xlink:href="#t"/><use transform="matrix(0.010850694444444444,0,0,0.010850694444444444,74.31640625,0)" xlink:href="#E"/><use transform="matrix(0.010850694444444444,0,0,0.010850694444444444,85.77473958333333,0)" xlink:href="#s"/></g><path fill="#333" d="M729 0H543v-1233l-373 137v-168l530-199h29V0" id="L"/><g id="n"><use transform="matrix(0.010850694444444444,0,0,0.010850694444444444,0,0)" xlink:href="#L"/><use transform="matrix(0.010850694444444444,0,0,0.010850694444444444,12.47829861111111,0)" xlink:href="#J"/></g><path fill="#333" d="M992-673H361v516h733V0H169v-1456h915v158H361v468h631v157" id="M"/><path fill="#333" d="M525-543H37v-151h488v151" id="N"/><path fill="#333" d="M491 20c-241-1-355-148-355-398v-704h185v699c0 164 67 246 200 246 141 0 235-53 282-158v-787h185V0H812l-4-107C736-22 630 20 491 20" id="O"/><g id="o"><use transform="matrix(0.010850694444444444,0,0,0.010850694444444444,0,0)" xlink:href="#M"/><use transform="matrix(0.010850694444444444,0,0,0.010850694444444444,12.630208333333332,0)" xlink:href="#t"/><use transform="matrix(0.010850694444444444,0,0,0.010850694444444444,24.891493055555554,0)" xlink:href="#A"/><use transform="matrix(0.010850694444444444,0,0,0.010850694444444444,37.424045138888886,0)" xlink:href="#N"/><use transform="matrix(0.010850694444444444,0,0,0.010850694444444444,43.5546875,0)" xlink:href="#O"/><use transform="matrix(0.010850694444444444,0,0,0.010850694444444444,55.80512152777778,0)" xlink:href="#E"/><use transform="matrix(0.010850694444444444,0,0,0.010850694444444444,67.26345486111111,0)" xlink:href="#s"/><use transform="matrix(0.010850694444444444,0,0,0.010850694444444444,79.03645833333334,0)" xlink:href="#C"/></g><path fill="#333" d="M503-687l240-395h216L605-547 970 0H756L506-405 256 0H41l365-547-354-535h214" id="P"/><g id="p"><use transform="matrix(0.010850694444444444,0,0,0.010850694444444444,0,0)" xlink:href="#s"/><use transform="matrix(0.010850694444444444,0,0,0.010850694444444444,11.773003472222221,0)" xlink:href="#P"/><use transform="matrix(0.010850694444444444,0,0,0.010850694444444444,22.786458333333332,0)" xlink:href="#B"/><use transform="matrix(0.010850694444444444,0,0,0.010850694444444444,35.25390625,0)" xlink:href="#C"/><use transform="matrix(0.010850694444444444,0,0,0.010850694444444444,42.56727430555556,0)" xlink:href="#s"/><use transform="matrix(0.010850694444444444,0,0,0.010850694444444444,54.34027777777778,0)" xlink:href="#E"/><use transform="matrix(0.010850694444444444,0,0,0.010850694444444444,65.79861111111111,0)" xlink:href="#E"/><use transform="matrix(0.010850694444444444,0,0,0.010850694444444444,77.25694444444444,0)" xlink:href="#x"/><use transform="matrix(0.010850694444444444,0,0,0.010850694444444444,82.64973958333333,0)" xlink:href="#y"/><use transform="matrix(0.010850694444444444,0,0,0.010850694444444444,95.32335069444444,0)" xlink:href="#t"/></g></defs></g></svg>